<svg xmlns="http://www.w3.org/2000/svg" width="58" height="47.047" viewBox="0 0 58 47.047">
  <g id="Group_781" data-name="Group 781" transform="translate(-159 -427.953)">
    <text id="_1_Person" data-name="+ 1 Person" transform="translate(188 472)" fill="#fff" font-size="12" font-family="SegoeUI, Segoe UI" opacity="0.56"><tspan x="-28.444" y="0">+ 1 Person</tspan></text>
    <g id="iconfinder_group_309042" transform="translate(172 422.953)">
      <g id="Group_35" data-name="Group 35" transform="translate(18.49 5)">
        <g id="Group_33" data-name="Group 33" transform="translate(0 13.228)">
          <path id="Path_64" data-name="Path 64" d="M18.191,14A10.782,10.782,0,0,0,12.9,15.323a14.284,14.284,0,0,1,3.087,3.968l.147.294v3.234H27.892v-2.94A10.788,10.788,0,0,0,18.191,14Z" transform="translate(-12.9 -14)" fill="#f4911e"/>
        </g>
        <g id="Group_34" data-name="Group 34" transform="translate(0.147)">
          <circle id="Ellipse_102" data-name="Ellipse 102" cx="5" cy="5" r="5" transform="translate(0.363 0.047)" fill="#f4911e"/>
        </g>
      </g>
      <g id="Group_36" data-name="Group 36" transform="translate(1 5)">
        <path id="Path_65" data-name="Path 65" d="M5.409,10.144A5.208,5.208,0,0,1,10.554,5,5.208,5.208,0,0,1,15.7,10.144a5.208,5.208,0,0,1-5.144,5.144A5.208,5.208,0,0,1,5.409,10.144Zm5.144,8.084A10.214,10.214,0,0,0,1,24.107v2.94H20.107v-2.94A10.214,10.214,0,0,0,10.554,18.228Z" transform="translate(-1 -5)" fill="#f4911e"/>
      </g>
    </g>
  </g>
</svg>
