<svg xmlns="http://www.w3.org/2000/svg" width="46" height="47.047" viewBox="0 0 46 47.047">
  <g id="Group_782" data-name="Group 782" transform="translate(-275 -427.953)">
    <g id="iconfinder_group2_309041" transform="translate(278 421.953)">
      <g id="Group_37" data-name="Group 37" transform="translate(9.48 6)">
        <path id="Path_66" data-name="Path 66" d="M11.088,11.088A5,5,0,0,1,16.175,6a5,5,0,0,1,5.088,5.088,5,5,0,0,1-5.088,5.088A5,5,0,0,1,11.088,11.088Zm5.088,8.48c-7.8,0-10.175,5.6-10.175,5.6v2.883H26.351V25.164S23.977,19.567,16.175,19.567Z" transform="translate(-6 -6)" fill="#f4911e"/>
      </g>
      <g id="Group_40" data-name="Group 40" transform="translate(25.93 6)">
        <g id="Group_38" data-name="Group 38" transform="translate(0.509)">
          <ellipse id="Ellipse_103" data-name="Ellipse 103" cx="4.5" cy="4" rx="4.5" ry="4" transform="translate(-0.439 0.047)" fill="#f4911e"/>
        </g>
        <g id="Group_39" data-name="Group 39" transform="translate(0 11.871)">
          <path id="Path_67" data-name="Path 67" d="M20.449,13A7.894,7.894,0,0,0,15.7,14.357a10.464,10.464,0,0,1,5.427,5.427v.17H28.08v-2.2A7.891,7.891,0,0,0,20.449,13Z" transform="translate(-15.7 -13)" fill="#f4911e"/>
        </g>
      </g>
      <g id="Group_43" data-name="Group 43" transform="translate(25.93 6)">
        <g id="Group_41" data-name="Group 41" transform="translate(0.509)">
          <ellipse id="Ellipse_104" data-name="Ellipse 104" cx="4.5" cy="4" rx="4.5" ry="4" transform="translate(-0.439 0.047)" fill="#f4911e"/>
        </g>
        <g id="Group_42" data-name="Group 42" transform="translate(0 11.871)">
          <path id="Path_68" data-name="Path 68" d="M20.449,13A7.894,7.894,0,0,0,15.7,14.357a10.464,10.464,0,0,1,5.427,5.427v.17H28.08v-2.2A7.891,7.891,0,0,0,20.449,13Z" transform="translate(-15.7 -13)" fill="#f4911e"/>
        </g>
      </g>
      <g id="Group_46" data-name="Group 46" transform="translate(1 6)">
        <g id="Group_44" data-name="Group 44" transform="translate(3.392)">
          <ellipse id="Ellipse_105" data-name="Ellipse 105" cx="4.5" cy="4" rx="4.5" ry="4" transform="translate(-0.392 0.047)" fill="#f4911e"/>
        </g>
        <g id="Group_45" data-name="Group 45" transform="translate(0 11.871)">
          <path id="Path_69" data-name="Path 69" d="M8.632,13a7.894,7.894,0,0,1,4.749,1.357,10.464,10.464,0,0,0-5.427,5.427v.17H1v-2.2A7.891,7.891,0,0,1,8.632,13Z" transform="translate(-1 -13)" fill="#f4911e"/>
        </g>
      </g>
    </g>
    <text id="_Group" data-name="+ Group" transform="translate(298 472)" fill="#fff" font-size="12" font-family="SegoeUI, Segoe UI" opacity="0.56"><tspan x="-22.389" y="0">+ Group</tspan></text>
  </g>
</svg>
