<svg xmlns="http://www.w3.org/2000/svg" width="24.195" height="16.332" viewBox="0 0 24.195 16.332">
  <path id="Icon_zocial-email" data-name="Icon zocial-email" d="M.072,18.954V5.515q0-.023.07-.443l7.91,6.766L.165,19.421a1.977,1.977,0,0,1-.093-.467ZM1.122,4.138a1.006,1.006,0,0,1,.4-.07h21.3a1.321,1.321,0,0,1,.42.07l-7.933,6.79-1.05.84-2.077,1.7-2.077-1.7-1.05-.84ZM1.145,20.33,9.1,12.7l3.08,2.5,3.08-2.5,7.956,7.63a1.12,1.12,0,0,1-.4.07H1.519a1.057,1.057,0,0,1-.373-.07Zm15.166-8.493L24.2,5.071a1.393,1.393,0,0,1,.07.443V18.954a1.788,1.788,0,0,1-.07.467Z" transform="translate(-0.072 -4.068)" fill="#333"/>
</svg>
