<svg xmlns="http://www.w3.org/2000/svg" width="17.886" height="20.441" viewBox="0 0 17.886 20.441">
  <path id="Icon_awesome-unlock" data-name="Icon awesome-unlock" d="M15.969,10.22h-9.9V6.1a2.875,2.875,0,1,1,5.749-.036v.639a.956.956,0,0,0,.958.958h1.278a.956.956,0,0,0,.958-.958V6.068a6.069,6.069,0,1,0-12.137.06V10.22H1.916A1.917,1.917,0,0,0,0,12.137v6.388a1.917,1.917,0,0,0,1.916,1.916H15.969a1.917,1.917,0,0,0,1.916-1.916V12.137A1.917,1.917,0,0,0,15.969,10.22Z" transform="translate(0 0)" fill="#333"/>
</svg>
