<svg xmlns="http://www.w3.org/2000/svg" width="21.769" height="23.28" viewBox="0 0 21.769 23.28">
  <defs>
    <style>
      .cls-1 {
        fill: #333;
        
      }
    </style>
  </defs>
  <path id="Path_60" data-name="Path 60" class="cls-1" d="M152.6,866.129a4.334,4.334,0,0,1,1.316-2.989,7.853,7.853,0,0,1,2.489-1.525c.849-.36,1.717-.678,2.547-1.075a6.535,6.535,0,0,0,1.268-.852,1.391,1.391,0,0,0,.505-1.138c-.005-.6.008-1.194.007-1.791a.355.355,0,0,0-.066-.227,5.023,5.023,0,0,1-1.234-2.585c-.017-.079-.1-.151-.174-.209s-.152-.072-.218-.121a2.091,2.091,0,0,1-.3-2.567.424.424,0,0,0,.046-.322,11.09,11.09,0,0,1-.393-3.1,8.517,8.517,0,0,1,.322-1.975,3.5,3.5,0,0,1,2.131-2.3,6.34,6.34,0,0,1,3.945-.331,1.989,1.989,0,0,1,1.21.751.348.348,0,0,0,.208.114,2.884,2.884,0,0,1,2.413,2.709,9.776,9.776,0,0,1-.432,4.112c-.048.162-.075.29.085.413a.708.708,0,0,1,.18.279,2.337,2.337,0,0,1-.463,2.165c-.014.012-.027.031-.043.035-.414.1-.426.454-.514.783a4.633,4.633,0,0,1-1.093,2.141.345.345,0,0,0-.075.222c0,.6.012,1.194,0,1.791a1.6,1.6,0,0,0,.529,1.189,4.925,4.925,0,0,0,1.581.985c.932.4,1.88.767,2.8,1.185a5.742,5.742,0,0,1,2.352,1.8,4.382,4.382,0,0,1,.827,2.434Z" transform="translate(-152.597 -842.849)"/>
</svg>
