<svg xmlns="http://www.w3.org/2000/svg" width="14.56" height="14.56" viewBox="0 0 14.56 14.56">
  <path id="phone-1" d="M15.087,13.319,13.2,11.75a.5.5,0,0,0-.509-.027l-1.047.7a.662.662,0,0,1-.371.111,4.355,4.355,0,0,1-.932-.131A5.623,5.623,0,0,1,6.155,8.213a4.351,4.351,0,0,1-.131-.932.662.662,0,0,1,.111-.371l.7-1.046a.5.5,0,0,0-.027-.509L5.236,3.472a.311.311,0,0,0-.531,0L3.664,4.745a1.856,1.856,0,0,0-.288,1.482A.662.662,0,0,1,3.4,6.3a3.4,3.4,0,0,0,.1.366,8.507,8.507,0,0,0,.476,1.138,15.124,15.124,0,0,0,2.892,3.882A15.113,15.113,0,0,0,10.75,14.58a8.513,8.513,0,0,0,1.138.476,3.51,3.51,0,0,0,.367.1.662.662,0,0,1,.092.024,1.814,1.814,0,0,0,1.466-.293l1.272-1.04a.31.31,0,0,0,0-.531Zm-3.128-2.7a1.816,1.816,0,0,1,2.091.112l1.885,1.57a1.627,1.627,0,0,1-.011,2.573l-1.272,1.04a3.123,3.123,0,0,1-2.69.535q-.246-.056-.486-.137a9.827,9.827,0,0,1-1.317-.549,16.44,16.44,0,0,1-4.229-3.14A16.437,16.437,0,0,1,2.79,8.4a9.819,9.819,0,0,1-.55-1.317A4.974,4.974,0,0,1,2.1,6.587a3.162,3.162,0,0,1,.537-2.681l1.04-1.271a1.629,1.629,0,0,1,2.573-.011l1.57,1.884A1.809,1.809,0,0,1,7.935,6.6l-.572.857a3.912,3.912,0,0,0,.08.451A4.33,4.33,0,0,0,8.114,9.4a4.272,4.272,0,0,0,1.041,1.041,4.333,4.333,0,0,0,1.495.67,3.841,3.841,0,0,0,.451.08l.858-.571Z" transform="translate(-2 -2)" fill="#353a50"/>
</svg>
