<svg xmlns="http://www.w3.org/2000/svg" width="14.562" height="16.86" viewBox="0 0 14.562 16.86">
  <path id="path" d="M19.562,5.122V12.6A3.321,3.321,0,0,1,18.3,15.077L13.67,18.432a2.468,2.468,0,0,1-2.78,0L6.257,15.076A3.33,3.33,0,0,1,5,12.6V5.122A2.435,2.435,0,0,1,6.616,2.877a11.939,11.939,0,0,1,1.571-.441,19.453,19.453,0,0,1,8.188,0,11.917,11.917,0,0,1,1.575.443A2.453,2.453,0,0,1,19.562,5.122Zm-13.029,0V12.6a1.831,1.831,0,0,0,.623,1.236l4.634,3.356a.947.947,0,0,0,.982,0l4.634-3.356a1.817,1.817,0,0,0,.623-1.236V5.122a.929.929,0,0,0-.562-.789l-.048-.016q-.167-.062-.338-.113-.512-.157-1.037-.271a17.922,17.922,0,0,0-7.528,0q-.524.114-1.037.271c-.172.053-.287.093-.338.113l-.057.019a.914.914,0,0,0-.552.786ZM9.757,9.505l1.374,1.374L14.8,7.206A.766.766,0,1,1,15.888,8.29l-4.215,4.215a.766.766,0,0,1-1.084,0L8.673,10.589A.766.766,0,1,1,9.757,9.505Z" transform="translate(-5 -2)" fill="#333"/>
</svg>
