<svg xmlns="http://www.w3.org/2000/svg" width="57.9" height="57.9" viewBox="0 0 57.9 57.9">
  <defs>
    <style>
      .cls-1 {
        fill: #fff;
      }
    </style>
  </defs>
  <path id="Icon_awesome-user-circle" data-name="Icon awesome-user-circle" class="cls-1" d="M28.95.563A28.95,28.95,0,1,0,57.9,29.512,28.945,28.945,0,0,0,28.95.563Zm0,11.206A10.273,10.273,0,1,1,18.677,22.041,10.273,10.273,0,0,1,28.95,11.769Zm0,40.156a22.369,22.369,0,0,1-17.1-7.961,13.015,13.015,0,0,1,11.5-6.981,2.856,2.856,0,0,1,.829.128,15.456,15.456,0,0,0,4.774.805,15.4,15.4,0,0,0,4.774-.805,2.856,2.856,0,0,1,.829-.128,13.015,13.015,0,0,1,11.5,6.981A22.369,22.369,0,0,1,28.95,51.925Z" transform="translate(0 -0.563)"/>
</svg>
