<svg xmlns="http://www.w3.org/2000/svg" width="14.562" height="14.562" viewBox="0 0 14.562 14.562">
  <path id="path" d="M9.281,9.281a3.64,3.64,0,1,1,3.64-3.64A3.64,3.64,0,0,1,9.281,9.281Zm0-1.324A2.317,2.317,0,1,0,6.964,5.64,2.317,2.317,0,0,0,9.281,7.957Zm6.889,4.688a4.263,4.263,0,0,1,.268,1.1q.074.507.114,1.018l.008.1,0,.047a1.655,1.655,0,0,1-1.653,1.655H3.653A1.655,1.655,0,0,1,2,14.907l0-.047.008-.1q.042-.511.114-1.018a4.263,4.263,0,0,1,.268-1.1c.509-1.1,4.253-2.7,6.889-2.7S15.661,11.54,16.17,12.645Zm-1.27.5a3.407,3.407,0,0,0-.389-.284,9.62,9.62,0,0,0-1.386-.716,10.211,10.211,0,0,0-3.844-.882,10.212,10.212,0,0,0-3.844.882,9.62,9.62,0,0,0-1.386.716,3.436,3.436,0,0,0-.389.284,1,1,0,0,0-.078.076,4.135,4.135,0,0,0-.15.71c-.033.222-.061.461-.084.7-.012.124-.021.224-.025.288a.331.331,0,0,0,.329.313H14.909a.331.331,0,0,0,.329-.313c0-.065-.013-.164-.025-.288q-.033-.352-.084-.7a4.135,4.135,0,0,0-.15-.71A.941.941,0,0,0,14.9,13.149Z" transform="translate(-2 -2)" fill="#333"/>
</svg>
